<svg width="18" height="18" viewBox="0 0 18 18" fill="none" xmlns="http://www.w3.org/2000/svg">
<path d="M8.68012 12.37C8.49012 12.37 8.30012 12.3 8.15012 12.15C7.86012 11.86 7.86012 11.38 8.15012 11.09L10.1801 9.06L8.15012 7.03C7.86012 6.74 7.86012 6.26 8.15012 5.97C8.44012 5.68 8.92012 5.68 9.21012 5.97L11.7701 8.53C12.0601 8.82 12.0601 9.3 11.7701 9.59L9.21012 12.15C9.07012 12.3 8.87012 12.37 8.68012 12.37Z" fill="#292D32"/>
<path d="M11.17 9.81H1C0.59 9.81 0.25 9.47 0.25 9.06C0.25 8.65 0.59 8.31 1 8.31H11.17C11.58 8.31 11.92 8.65 11.92 9.06C11.92 9.47 11.58 9.81 11.17 9.81Z" fill="#292D32"/>
<path d="M9 17.75C8.59 17.75 8.25 17.41 8.25 17C8.25 16.59 8.59 16.25 9 16.25C13.27 16.25 16.25 13.27 16.25 9C16.25 4.73 13.27 1.75 9 1.75C8.59 1.75 8.25 1.41 8.25 1C8.25 0.59 8.59 0.25 9 0.25C14.15 0.25 17.75 3.85 17.75 9C17.75 14.15 14.15 17.75 9 17.75Z" fill="#292D32"/>
</svg>
